<svg id="Layer_1" data-name="Layer 1" xmlns="http://www.w3.org/2000/svg" viewBox="0 0 420.51 216.77"><defs><style>.cls-1,.cls-2{fill:#fff;}.cls-2{stroke:#fff;stroke-miterlimit:10;stroke-width:2px;}</style></defs><title>buddyLogo2</title><path class="cls-1" d="M151.34,121.88a13.14,13.14,0,0,1-2.35,7.8,16.13,16.13,0,0,1-7.05,5.3,17.44,17.44,0,0,1,8.7,5.7,14.41,14.41,0,0,1,2.9,9q0,9.49-6.9,14.1t-20,4.6c-1.27,0-2.62,0-4-.1s-2.89-.19-4.35-.35-2.94-.4-4.4-.7a40.07,40.07,0,0,1-4.1-1c-3.2-1.07-4.8-3-4.8-5.9v-48.9a3.91,3.91,0,0,1,1-2.9,7,7,0,0,1,2.8-1.6,38.25,38.25,0,0,1,7.9-1.55q4.5-.45,9.4-.45,12.09,0,18.7,4.15T151.34,121.88Zm-33.8,9.2h10.1q5.4,0,8-2.2a7.52,7.52,0,0,0,2.65-6.1q0-7.91-12.2-7.9c-1.67,0-3.25.07-4.75.2s-2.79.3-3.85.5Zm22.8,18.1a7.65,7.65,0,0,0-2.85-6.3q-2.85-2.3-8.25-2.3h-11.7v16.7a25.57,25.57,0,0,0,4.55.7c1.76.13,3.51.2,5.25.2,4.06,0,7.25-.72,9.55-2.15S140.34,152.31,140.34,149.18Z"/><path class="cls-1" d="M190.94,168.58a32.19,32.19,0,0,1-10.7-1.65,22.11,22.11,0,0,1-8-4.7,20,20,0,0,1-4.95-7.3,25.39,25.39,0,0,1-1.7-9.55v-39.1c.53-.13,1.38-.3,2.55-.5a20.27,20.27,0,0,1,3.45-.3q3.6,0,5.25,1.3t1.65,4.8v33.3q0,6.3,3.5,9.65a13.5,13.5,0,0,0,17.8,0q3.49-3.34,3.5-9.65v-38.6c.6-.13,1.46-.3,2.6-.5a19.44,19.44,0,0,1,3.4-.3c2.4,0,4.16.43,5.3,1.3s1.7,2.47,1.7,4.8v33.8a25.59,25.59,0,0,1-1.7,9.55,19.92,19.92,0,0,1-5,7.3,22.77,22.77,0,0,1-8,4.7A32.23,32.23,0,0,1,190.94,168.58Z"/><path class="cls-1" d="M285.34,136.28A39.1,39.1,0,0,1,283,150.43a26.32,26.32,0,0,1-6.65,10A28.17,28.17,0,0,1,266,166.38a42.82,42.82,0,0,1-13.45,2c-1.14,0-2.37,0-3.7,0s-2.72-.14-4.15-.3-2.87-.38-4.3-.65a24.48,24.48,0,0,1-4-1.1q-4.8-1.8-4.8-6v-49a3.78,3.78,0,0,1,1-2.8,7,7,0,0,1,2.8-1.6,31.58,31.58,0,0,1,8-1.65q4.35-.35,8.25-.35a46,46,0,0,1,13.75,2A28.8,28.8,0,0,1,276,112.68a26.52,26.52,0,0,1,6.85,9.8A35.84,35.84,0,0,1,285.34,136.28Zm-13.3.1a26.31,26.31,0,0,0-1.5-9.35,17.57,17.57,0,0,0-4.15-6.5,16.82,16.82,0,0,0-6.3-3.8,24.54,24.54,0,0,0-7.95-1.25c-1.54,0-2.92,0-4.15.15s-2.42.22-3.55.35v41.1a23.74,23.74,0,0,0,3.85.55c1.43.1,2.85.15,4.25.15q9.3,0,14.4-5.4T272,136.38Z"/><path class="cls-1" d="M348.79,122.48a26.52,26.52,0,0,0-6.85-9.8l-.62-.5a5.49,5.49,0,0,1-.1,1.57,5.35,5.35,0,0,1,.11,1c.66,1.65-.37,3.68-1.37,5.14,0,2.26.65,4.5.18,6.78a10.87,10.87,0,0,1-1,2.7,5.34,5.34,0,0,1,.31,1.19,5.67,5.67,0,0,1,.46,3.54h0c.9,2.35.14,5.39-2.28,6.54-.56,5-2.16,8.92-4.83,11.76q-5.1,5.4-14.4,5.4c-1.4,0-2.82-.05-4.25-.15a23.74,23.74,0,0,1-3.85-.55V116c1.13-.13,2.31-.25,3.55-.35s2.32-.13,3.65-.14c-1.63-2.82-3.36-5.59-4.92-8.46a5.24,5.24,0,0,1-.63-2l-2.7.18a31.58,31.58,0,0,0-8.05,1.65,7,7,0,0,0-2.8,1.6,3.78,3.78,0,0,0-1,2.8v49q0,4.2,4.8,6a24.48,24.48,0,0,0,4.05,1.1c1.43.27,2.86.48,4.3.65s2.81.26,4.15.3,2.56,0,3.7,0a42.82,42.82,0,0,0,13.45-2,28.17,28.17,0,0,0,10.35-5.95,26.32,26.32,0,0,0,6.65-10,39.1,39.1,0,0,0,2.35-14.15A35.84,35.84,0,0,0,348.79,122.48Z"/><path class="cls-1" d="M407.74,111.28a11.07,11.07,0,0,1-1.1,3.65q-1.11,2.55-3.4,6.75t-5.9,10.2q-3.6,6-8.7,13.9v21.1c-.54.13-1.35.3-2.45.5a19.26,19.26,0,0,1-3.45.3c-2.54,0-4.3-.47-5.3-1.4s-1.5-2.47-1.5-4.6v-15.8q-2.7-3.9-5.7-8.6t-5.9-9.5q-2.91-4.8-5.4-9.45t-4.2-8.45a8.22,8.22,0,0,1,2.5-2.75,7.07,7.07,0,0,1,4.3-1.25,7.61,7.61,0,0,1,4.65,1.3,13.61,13.61,0,0,1,3.45,4.5q.8,1.39,2.55,4.65c1.16,2.17,2.4,4.45,3.7,6.85s2.53,4.67,3.7,6.8,2,3.6,2.45,4.4h.5l3.6-7q1.69-3.35,3.3-6.6t3.15-6.6q1.55-3.34,3.25-6.95a8.55,8.55,0,0,1,2.75-1,15.46,15.46,0,0,1,3-.3,6.93,6.93,0,0,1,4.45,1.4A4.84,4.84,0,0,1,407.74,111.28Z"/><path class="cls-2" d="M348.36,37.14a34.34,34.34,0,0,0-6.55-10.51,20.05,20.05,0,0,0-21.62-5.13,20.62,20.62,0,0,0-2.66,1.23.82.82,0,0,0-.45.79c-.31-.19-.62-.38-.94-.56a58.84,58.84,0,0,0-9.35-4.53,36.12,36.12,0,0,0-20.43-1.75A27.08,27.08,0,0,0,276,21.33a39.88,39.88,0,0,0-18.87-4,37.25,37.25,0,0,0-11.88,2.5l-.17.08a27.8,27.8,0,0,0-8.45-1.75c-6-.22-12.33,1.7-16.55,6.07-.21.21-.4.43-.59.65-7.55-.71-15,1.59-22,4.22-3.65,1.37-7.26,2.86-10.92,4.18a82.32,82.32,0,0,1-11.72,3.32c-8,1.62-16.1,1.58-24.22,2A78.74,78.74,0,0,0,138.9,40a51.21,51.21,0,0,0-11.11,3.69,84.66,84.66,0,0,0-12.86,7.48h-.18l-16.7,0a40.66,40.66,0,0,0-8.1.45,16.58,16.58,0,0,0-6.19,2.67A22.58,22.58,0,0,0,76.9,62a.66.66,0,0,0-.53-.2c-9.45.56-19.29,2.2-27.13,7.87-3.86,2.81-7.17,6.31-11.17,8.94s-8.6,4.56-12.9,6.84A19.9,19.9,0,0,0,20,89.07a11.63,11.63,0,0,0-2.84,5.5,27.35,27.35,0,0,0-.46,6.58,49.36,49.36,0,0,0,.75,7.28c1.63,9.27,6.21,17.5,11,25.45,4.64,7.64,18.12,39.32,25.48,47.24A105.9,105.9,0,0,0,65.79,192q3.18,2.5,6.55,4.76c1.11.74,2.23,1.46,3.37,2.15a7.18,7.18,0,0,0,3.64,1.41c2.81,0,4.51-2.83,5.54-5.08a42.52,42.52,0,0,0,2.67-7.93,131.53,131.53,0,0,0,2.57-17.67q.9-9.34,1.14-18.75c.06-2.38.08-4.77,0-7.14.3,1.16.63,2.32,1,3.47a70.33,70.33,0,0,0,10.78,20.85c.56.73,1.82,0,1.27-.74A71.57,71.57,0,0,1,90.8,128.87c-.15-3.73-.13-7.46-.25-11.18s-.32-7.27-.6-10.9c-.26-3.29-.85-6.73-.31-10s2.42-6,4.27-8.62A150.35,150.35,0,0,1,108.73,70c.7-.73-.4-1.83-1.11-1.1a143.62,143.62,0,0,0-13.7,16.25c-2,2.72-4.15,5.52-5.33,8.7s-.91,6.51-.61,9.76c.68,7.49.88,15,1,22.47,0,.86,0,1.71.09,2.56C86.31,118.2,81.69,108.05,82,97c0-1.42.17-2.84.35-4.25.11-.85-1.33-1.05-1.5-.2-1.14,5.54-.45,11.3.79,16.76,1.33,5.9,3.4,11.58,5.08,17.37a76,76,0,0,1,2.11,9.07,65.52,65.52,0,0,1,.73,9.08c.11,6.08-.17,12.19-.58,18.25s-1,12-1.87,17.92a64.94,64.94,0,0,1-1.61,8.06,25.28,25.28,0,0,1-3.16,7.69,4,4,0,0,1-3,2c-1.24,0-2.39-1-3.39-1.59q-3.37-2.13-6.59-4.51a101.62,101.62,0,0,1-11.89-10.34c-6.05-6.17-20.83-38-25.34-45.47-4.62-7.65-9.61-15.23-12.1-23.9A47.23,47.23,0,0,1,18.2,98.66a15,15,0,0,1,1.23-6.11,11.13,11.13,0,0,1,4.12-4.38,52,52,0,0,1,5.76-3.06C31.48,84,33.67,83,35.79,81.78a46.45,46.45,0,0,0,6-4c1.82-1.44,3.55-3,5.32-4.5a37.67,37.67,0,0,1,12-7,58.82,58.82,0,0,1,13.77-2.76c1.11-.11,2.22-.19,3.34-.26C73.8,68.22,72.6,73.88,71.6,79.21S69.49,90.14,67,95.11c-.38.76.75,1.42,1.15.66,4.58-8.6,4.67-18.6,7.79-27.68A25.9,25.9,0,0,1,83.15,56.7a15.89,15.89,0,0,1,5.6-3.2,25.43,25.43,0,0,1,7.68-.81l16.24.05c-1.66,1.18-3.3,2.39-4.92,3.61l-2.37,1.78c-.68.51,0,1.67.68,1.15,6.3-4.73,12.66-9.48,19.71-13.06a53.39,53.39,0,0,1,11-4.22,64.27,64.27,0,0,1,11.54-1.7c8-.55,16-.34,24-1.63A77.56,77.56,0,0,0,184,35.81c3.7-1.2,7.31-2.65,10.93-4.06,7.51-2.92,15.26-5.69,23.4-5.38a16.23,16.23,0,0,0-.89,1.43c-.57,1.05,1,2,1.62.93,3-5.36,8.93-8,14.86-8.42,6.71-.42,13,2.23,18.56,5.82,6.16,4,11.67,9.06,17,14.14a136,136,0,0,1,15.62,17.6,182.74,182.74,0,0,1,15,24.77,45.77,45.77,0,0,0-7.58-5.79,97.86,97.86,0,0,1-10.24-7.28c-6.24-5.15-11.83-11-17.71-16.53s-11.95-10.66-19-14.48c-.87-.48-1.76-.92-2.66-1.35s-1.68.91-.77,1.35c7,3.46,13.21,8.46,19,13.73s11.41,11.06,17.39,16.29a95.49,95.49,0,0,0,9.34,7.32c3.7,2.51,7.69,4.63,10.94,7.74a31.43,31.43,0,0,1,4.68,5.69c1.27,2.58,2.52,5.17,3.77,7.76a41.4,41.4,0,0,1,1.94,8.43c1.07,8.79,2.29,12.2,1.83,3.26-.08-1.64,1.08-1.58,1.89.07a258.39,258.39,0,0,0,16.25,29.37c1.8,2.74,4.47,6,8.19,4.83s3.22-5.85,3.4-8.93q.75-12.75,1.36-25.52c.09-2,.17-3.95.25-5.92.88-1.86,1.83-3.69,2.76-5.52A82.91,82.91,0,0,0,349.92,86a70.41,70.41,0,0,0,2.87-12.07A71.44,71.44,0,0,0,352,49.06a65.42,65.42,0,0,0-3.66-11.92m1.44,11A67.5,67.5,0,0,1,351,72.28,68.93,68.93,0,0,1,343.7,94.9c-1.77,3.46-3.61,6.87-5.07,10.48a24.9,24.9,0,0,0-2.18,10.88,17.77,17.77,0,0,0,.4,2.81c.24,1.05,2,.87,1.92-.24a25.29,25.29,0,0,1,1.32-10.77c-.44,6.6-.85,13.21-1.19,19.81l-.33,6.24c-.06,1-.11,2.08-.17,3.12a10.24,10.24,0,0,1-.28,2.28,2.42,2.42,0,0,1-3.27,1.54c-1.66-.48-2.8-2.09-3.74-3.44-8.65-12.52-15.08-26.46-21.63-40.15s-13.25-27.39-22.15-39.72A140.92,140.92,0,0,0,272,40a140.53,140.53,0,0,0-16.76-14.55A45.88,45.88,0,0,0,247.73,21a39.22,39.22,0,0,1,18.45-1c7.05,1.32,13.31,5,18.78,9.49,3.19,2.65,6.1,5.59,9.24,8.29a.79.79,0,0,0,1.1-1.12,83.86,83.86,0,0,0-8.18-7.81A57.29,57.29,0,0,0,278,22.38c-.13-.08-.27-.15-.41-.22a28.42,28.42,0,0,1,17.92-4.46,44.14,44.14,0,0,1,18.85,6.15c3.28,1.87,6.31,4.08,9.43,6.21.69.47,1.54-.63.89-1.17a57.88,57.88,0,0,0-6.3-4.54l.05,0a18.08,18.08,0,0,1,20.75,2.6,30.29,30.29,0,0,1,6.71,9.85,62.56,62.56,0,0,1,3.87,11.38"/></svg>