<?xml version="1.0" encoding="utf-8"?>
<!-- Generator: Adobe Illustrator 23.0.1, SVG Export Plug-In . SVG Version: 6.00 Build 0)  -->
<svg version="1.1" id="Layer_1" xmlns="http://www.w3.org/2000/svg" xmlns:xlink="http://www.w3.org/1999/xlink" x="0px" y="0px"
	 viewBox="0 0 270 104" style="enable-background:new 0 0 270 104;" xml:space="preserve">
<style type="text/css">
	.st0{fill:#E5E5E5;}
</style>
<title>buddyLogo</title>
<path class="st0" d="M6.4,78.5c-0.5-0.8-1-1.5-1.5-2.2c-7-10.7-5.2-23.8,4.5-32.1l0.7-0.7C1.7,35.9-1.6,26.7,2.3,15.7
	C4.6,9.3,9.5,4.2,15.9,1.8c12-4.9,28.3,0.9,32.4,17.6c0.5,0,2.3,6.7,2.7,6.7c13.4,0,155,0,168.5,0c0.8,0,2.4-6.8,2.7-8.1
	c3.3-12.8,16.4-20.5,29.2-17.1c3.2,0.8,6.2,2.3,8.8,4.4c10.3,8,12.2,22.8,4.3,33.1c-1.4,1.8-3,3.3-4.6,5.1c1.2,1.2,2.6,2.4,3.8,3.8
	c8.5,10.1,7.2,25.2-2.9,33.7c-8.3,7-20.3,7.5-29.2,1.2c-4.7-3.3-8.1-8.1-9.4-13.7c-0.3-1-1.8-11-2.5-11c-13.6,0-155.2,0-168.8,0
	c-0.8,0-2.7,10.1-3,11.2c-4,16.2-23.6,23.3-37.1,13.5c-0.6-0.5-1.3-0.9-2-1.3L6.4,78.5z"/>
<path class="st0" d="M67.4,65.6c3-0.1,6,0.1,9,0.8c1.4,0.3,2.8,0.9,4,1.8c1.8,1.5,2.7,3.9,2.7,7c0,2.4-1.3,4.6-3.8,6.7
	c3.2,1.7,4.8,4.7,4.8,9.2c0,3.5-1.1,6.1-3.4,7.8s-5.7,2.6-10.2,2.8h-15L55,97.3c0.8-0.8,1.8-1.4,2.9-1.7V71.7
	c-1.1-0.3-2.1-0.9-2.9-1.8l0.5-4.3C55.5,65.6,67.4,65.6,67.4,65.6z M68.1,71.3h-2.7v9h4.3c1.5,0.1,2.9-0.4,4.1-1.3
	c0.9-0.9,1.4-2.1,1.4-3.3c0.1-1.1-0.3-2.2-1-3c-0.6-0.6-1.4-1.1-2.3-1.2C70.6,71.3,69.4,71.3,68.1,71.3z M70,86h-4.6v10H69
	c1.8,0.1,3.7-0.2,5.4-1c1.3-0.8,2-2.3,1.8-3.8c0.1-1.5-0.4-2.9-1.4-3.9C73.8,86.4,72.2,86,70,86z"/>
<path class="st0" d="M111.8,98.7c-2.1,2.2-5.4,3.3-10,3.3s-7.9-1.1-9.8-3.3c-1.9-2.2-2.8-5.6-2.8-10.2V71.7c-1.1-0.3-2.1-1-2.9-1.8
	l0.5-4.3H99l0.5,4.3c-0.8,0.8-1.8,1.4-2.9,1.8v17.1c-0.1,1.9,0.3,3.9,1.2,5.6c0.8,1.2,2.3,1.8,4.4,1.8s3.6-0.6,4.5-1.9
	c1-1.7,1.4-3.6,1.3-5.5V71.7c-1.1-0.3-2.1-0.9-2.9-1.8l0.5-4.3H117l0.5,4.3c-0.8,0.8-1.7,1.4-2.8,1.8v16.9
	C115,93.2,113.9,96.5,111.8,98.7z"/>
<path class="st0" d="M134.2,101.6h-13.3l-0.5-4.3c0.8-0.8,1.8-1.4,2.9-1.7V71.7c-1.1-0.3-2.1-0.9-2.9-1.8l0.5-4.3h11.7
	c5.6,0,10,1.6,13.3,4.7s4.9,7.7,4.9,13.8c0,6.1-1.5,10.5-4.5,13.3C143.3,100.2,139.3,101.6,134.2,101.6z M130.7,96h3.8
	c2.3,0.1,4.6-0.7,6.2-2.4c1.5-1.6,2.3-4.7,2.3-9.2c0-8.7-3.3-13.1-9.9-13.1h-2.4L130.7,96L130.7,96z"/>
<path class="st0" d="M167.7,101.6h-13.3l-0.5-4.3c0.8-0.8,1.8-1.4,2.9-1.7V71.7c-1.1-0.3-2.1-0.9-2.9-1.8l0.5-4.3H166
	c5.6,0,10.1,1.6,13.3,4.7s4.9,7.7,4.9,13.8c0,6.1-1.5,10.5-4.5,13.3C176.9,100.2,172.9,101.6,167.7,101.6z M164.3,96h3.8
	c2.3,0.1,4.6-0.7,6.2-2.4c1.5-1.6,2.3-4.7,2.3-9.2c0-8.7-3.3-13.1-9.9-13.1h-2.3V96H164.3z"/>
<path class="st0" d="M205.6,101.6h-12.2l-0.5-4.3c0.8-0.8,1.8-1.4,2.9-1.7v-6l-8.5-17.7c-1.3-0.3-2.4-1-3.3-1.9l0.5-4.1v-0.1v-0.2
	h12.2l0.5,4.3c-0.6,0.7-1.5,1.3-2.4,1.6l1.8,4c1,2.2,1.9,4.5,2.6,6.8l0.4,1h0.8c0.8-2.7,1.7-5.3,2.9-7.9l1.7-3.8
	c-1.1-0.3-2-1-2.8-1.8l0.5-4.3h11.9l0.5,4.3c-0.9,1-2.1,1.7-3.4,2l-8.2,17.7v6c1.1,0.4,2.1,1,2.9,1.7L205.6,101.6z"/>
</svg>
