<svg id="Layer_1" data-name="Layer 1" xmlns="http://www.w3.org/2000/svg" viewBox="0 0 323.29 210.45"><defs><style>.cls-1{opacity:0.7;}.cls-2{fill:#faa31b;}.cls-3{font-size:157.02px;fill:#13213c;font-family:Dearest;}</style></defs><title>FINALOGO</title><g class="cls-1"><path class="cls-2" d="M195,83.22c16.69,6.18,36.85-6.6,45-28.49S241,10,224.34,3.83s-36.86,6.6-45,28.49S178.26,77,195,83.22Z" transform="translate(-8.36 -2.27)"/><path class="cls-2" d="M270.12,151.62c-1.15-5.24-14.29-39.62-44.19-51.16l-1.15-.44c-29.59-11-66.11,9.5-66.79,10s-3.19,1.89-4.94,3.29c-9.72,7.16-16.84,16.64-20,26.69-3.39,10.67-2,20.76,3.85,28.39a19.52,19.52,0,0,0,8.84,6.59c7.21,2.67,15.28,1.15,24.64-.62a118.28,118.28,0,0,1,18.51-2.49,18.59,18.59,0,0,1,7.88,1.12,28.81,28.81,0,0,1,8.76,5.25,109.73,109.73,0,0,1,11.75,13.91c5.4,7.2,10.5,14,17.77,16.68a19.6,19.6,0,0,0,9.88.94c19-2.91,30.84-25.77,26.47-51A51.18,51.18,0,0,0,270.12,151.62Z" transform="translate(-8.36 -2.27)"/><path class="cls-2" d="M259.3,107c16.68,6.17,36.85-6.6,44.95-28.49s1.12-44.73-15.56-50.9-36.86,6.6-45,28.49S242.61,100.86,259.3,107Z" transform="translate(-8.36 -2.27)"/><path class="cls-2" d="M316.54,105.05c-13.37-5-28.86,4.74-35.27,22s-.95,34.74,12.42,39.69,28.87-4.73,35.27-22S329.92,110,316.54,105.05Z" transform="translate(-8.36 -2.27)"/><path class="cls-2" d="M167.72,85.06c6.41-17.31.95-34.75-12.42-39.69S126.44,50.1,120,67.4s-1,34.74,12.42,39.69S161.32,102.36,167.72,85.06Z" transform="translate(-8.36 -2.27)"/></g><text class="cls-3" transform="translate(1.1 143.88)">Buddy</text></svg>