<svg xmlns="http://www.w3.org/2000/svg" viewBox="0 0 32 32"><defs><style>.cls-1{fill:#e5e5e5;}</style></defs><title>icons_Buddy</title><g id="Layer_2" data-name="Layer 2"><path class="cls-1" d="M11.84,14.88c2.08,0,3.77-2.22,3.77-4.94S13.92,5,11.84,5,8.07,7.22,8.07,9.94,9.76,14.88,11.84,14.88Z"/><path class="cls-1" d="M22.84,19.32c-.34-.53-3.17-3.76-6.91-3.81h-.14c-3.69,0-6.86,3.72-6.91,3.8s-.27.33-.41.56A6.36,6.36,0,0,0,7.36,23.6a3.54,3.54,0,0,0,1.57,2.95,2.32,2.32,0,0,0,1.24.36,5.45,5.45,0,0,0,2.67-1.06,13,13,0,0,1,1.92-1,2.1,2.1,0,0,1,.91-.2,3.35,3.35,0,0,1,1.17.22,12.16,12.16,0,0,1,1.85,1A5.19,5.19,0,0,0,21.31,27a2.24,2.24,0,0,0,1.12-.3c2-1.08,2.33-4.07.83-6.65A5,5,0,0,0,22.84,19.32Z"/><path class="cls-1" d="M19.85,14.88c2.07,0,3.76-2.22,3.76-4.94S21.92,5,19.85,5s-3.77,2.22-3.77,4.94S17.77,14.88,19.85,14.88Z"/><path class="cls-1" d="M26,12.34c-1.66,0-3,1.69-3,3.84S24.37,20,26,20s3-1.68,3-3.84S27.7,12.34,26,12.34Z"/><path class="cls-1" d="M8.93,16.18c0-2.15-1.3-3.84-3-3.84S3,14,3,16.18,4.3,20,6,20,8.93,18.34,8.93,16.18Z"/></g></svg>