<svg xmlns="http://www.w3.org/2000/svg" viewBox="0 0 32 32"><defs><style>.cls-1{fill:#faa31b;}</style></defs><title>icons_Buddy_in</title><g id="Layer_4" data-name="Layer 4"><path class="cls-1" d="M27.36,14.44h0L17.56,4.65a2.2,2.2,0,0,0-3.12,0L4.65,14.43h0a2.22,2.22,0,0,0,1.47,3.77h.46v7.2A2.59,2.59,0,0,0,9.16,28H13a.7.7,0,0,0,.7-.7V21.65a1.18,1.18,0,0,1,1.18-1.18h2.26a1.18,1.18,0,0,1,1.18,1.18V27.3a.7.7,0,0,0,.7.7h3.83a2.59,2.59,0,0,0,2.59-2.59v-7.2h.36a2.17,2.17,0,0,0,1.56-.65A2.21,2.21,0,0,0,27.36,14.44Z"/></g></svg>