<svg xmlns="http://www.w3.org/2000/svg" viewBox="0 0 32 32"><defs><style>.cls-1{fill:#faa31b;}</style></defs><title>icons_Buddy_in</title><g id="Layer_3" data-name="Layer 3"><path class="cls-1" d="M15.85,15.56a5.58,5.58,0,0,0,4.08-1.69,5.62,5.62,0,0,0,1.69-4.09,5.62,5.62,0,0,0-1.69-4.09,5.77,5.77,0,0,0-8.16,0,5.59,5.59,0,0,0-1.7,4.09,5.59,5.59,0,0,0,1.7,4.09A5.58,5.58,0,0,0,15.85,15.56Z"/><path class="cls-1" d="M26,22.45c0-.46-.1-1-.19-1.51a12.67,12.67,0,0,0-.38-1.53A7.37,7.37,0,0,0,24.76,18a5.37,5.37,0,0,0-1-1.23,4,4,0,0,0-1.35-.85,4.67,4.67,0,0,0-1.73-.32,1.74,1.74,0,0,0-.94.4c-.28.19-.61.4-1,.63a5.59,5.59,0,0,1-1.26.56,4.93,4.93,0,0,1-3.1,0,5.59,5.59,0,0,1-1.26-.56l-1-.63a1.74,1.74,0,0,0-.94-.4,4.67,4.67,0,0,0-1.73.32,4.18,4.18,0,0,0-1.36.85A5.63,5.63,0,0,0,7.24,18a8.1,8.1,0,0,0-.63,1.42,12.7,12.7,0,0,0-.37,1.53c-.09.54-.16,1-.19,1.52s0,.93,0,1.41a4,4,0,0,0,1.18,3A4.26,4.26,0,0,0,10.23,28H21.77a4.26,4.26,0,0,0,3.05-1.11,4,4,0,0,0,1.18-3C26,23.39,26,22.91,26,22.45Z"/></g></svg>