<svg id="Layer_1" data-name="Layer 1" xmlns="http://www.w3.org/2000/svg" viewBox="0 0 32 32"><defs><style>.cls-1{fill:#faa31b;}</style></defs><title>icons_Buddy_in</title><path class="cls-1" d="M27.81,11.29,20.65,4.2a.65.65,0,0,0-.94,0l0,0A2.25,2.25,0,0,0,19,5.85,2.39,2.39,0,0,0,19.28,7l-7.49,6.36a3.11,3.11,0,0,0-2.08-.78,3.21,3.21,0,0,0-2.22.9l0,0a.65.65,0,0,0,0,.93l4.3,4.26L9,21.37C9,21.45,7,23.47,5.66,25.09s-1.49,1.81-1.5,1.82a.66.66,0,0,0,.93.93s.29-.25,1.84-1.48S10.6,23.12,10.69,23l2.72-2.69,4.06,4a.64.64,0,0,0,.93,0l0,0a3.06,3.06,0,0,0,.91-2.19,3,3,0,0,0-.8-2.06L25,12.63a2.42,2.42,0,0,0,1.13.28,2.32,2.32,0,0,0,1.64-.66l0,0A.64.64,0,0,0,27.81,11.29Z"/></svg>