<svg xmlns="http://www.w3.org/2000/svg" viewBox="0 0 32 32"><defs><style>.cls-1{fill:#e5e5e5;}</style></defs><title>icons_Buddy</title><g id="Layer_4" data-name="Layer 4"><path class="cls-1" d="M21.93,11.17h-.8V9.58h.4a1.43,1.43,0,0,0,1.38-1.39V5.47A1.49,1.49,0,0,0,21.53,4H19.75V8.17h-1.3V4H16.66V8.17H15.34V4H13.55V8.17h-1.3V4H10.47A1.49,1.49,0,0,0,9.09,5.47V8.19a1.43,1.43,0,0,0,1.38,1.39h.4v1.59h-.8a2.08,2.08,0,0,0-2.07,2V25.94A2.26,2.26,0,0,0,10.16,28H21.84A2.26,2.26,0,0,0,24,25.94V13.15A2.08,2.08,0,0,0,21.93,11.17Zm-6.64,7.71h.05V16.53a.66.66,0,1,1,1.32,0v2.35H19a.71.71,0,0,1,0,1.41H16.66v2.35a.66.66,0,1,1-1.32,0V20.29H13.05a.71.71,0,0,1,0-1.41Z"/></g></svg>