<?xml version="1.0" encoding="utf-8"?>
<!-- Generator: Adobe Illustrator 23.0.1, SVG Export Plug-In . SVG Version: 6.00 Build 0)  -->
<svg version="1.1" id="Layer_1" xmlns="http://www.w3.org/2000/svg" xmlns:xlink="http://www.w3.org/1999/xlink" x="0px" y="0px"
	 viewBox="0 0 1035 605" style="enable-background:new 0 0 1035 605;" xml:space="preserve">
<style type="text/css">
	.st0{fill:#E5E5E5;}
	.st1{fill:#14213D;}
	.st2{fill:#FCA311;}
</style>
<title>video</title>
<g id="Layer_6">
	<path class="st0" d="M69.6,14.5h895.8c28.8,0,52.1,23.3,52.1,52.1v471.8c0,28.8-23.3,52.1-52.1,52.1H69.6
		c-28.8,0-52.1-23.3-52.1-52.1V66.6C17.5,37.8,40.8,14.5,69.6,14.5z"/>
	<g id="timeline">
		<path class="st1" d="M57.9,555.1h-6.3V554l3.1-3.4c0.4-0.4,0.7-0.8,1-1.3c0.2-0.3,0.3-0.6,0.3-1c0-0.4-0.1-0.8-0.4-1.1
			c-0.3-0.3-0.6-0.4-1-0.4c-0.4,0-0.9,0.1-1.2,0.5c-0.3,0.4-0.4,0.8-0.4,1.3h-1.6c0-0.5,0.1-1.1,0.4-1.5c0.3-0.5,0.6-0.8,1.1-1.1
			c0.5-0.3,1.1-0.4,1.7-0.4c0.8,0,1.5,0.2,2.1,0.7c0.5,0.5,0.8,1.2,0.8,1.9c0,0.5-0.1,1-0.4,1.5c-0.4,0.6-0.8,1.2-1.3,1.7l-2.3,2.4
			h4.3V555.1z"/>
		<path class="st1" d="M60.1,548.1c0.2,0,0.5,0.1,0.7,0.2c0.2,0.2,0.2,0.4,0.2,0.6c0,0.2-0.1,0.4-0.2,0.6c-0.2,0.2-0.4,0.3-0.7,0.2
			c-0.2,0-0.5-0.1-0.7-0.2c-0.2-0.2-0.3-0.4-0.3-0.6c0-0.2,0.1-0.5,0.2-0.6C59.6,548.1,59.8,548,60.1,548.1z M60.1,553.5
			c0.2,0,0.5,0.1,0.7,0.2c0.2,0.2,0.2,0.4,0.2,0.6c0,0.2-0.1,0.4-0.2,0.6c-0.2,0.2-0.4,0.3-0.7,0.2c-0.2,0-0.5-0.1-0.7-0.2
			c-0.2-0.2-0.3-0.4-0.3-0.6c0-0.2,0.1-0.5,0.2-0.6C59.6,553.6,59.8,553.5,60.1,553.5z"/>
		<path class="st1" d="M66.7,555.1h-1.6v-7.5l-2.3,0.8v-1.3l3.6-1.3h0.2L66.7,555.1z"/>
		<path class="st1" d="M75.2,551.8h1.2v1.2h-1.2v2.1h-1.5V553h-4v-0.9l4-6.3h1.6L75.2,551.8z M71.2,551.8h2.4v-3.9l-0.1,0.2
			L71.2,551.8z"/>
		<path class="st1" d="M914.5,549.9l0.5-4.7h5v1.3h-3.7l-0.3,2.2c0.4-0.2,0.9-0.4,1.5-0.4c0.8,0,1.5,0.3,2.1,0.8
			c0.5,0.6,0.8,1.5,0.7,2.3c0,0.8-0.3,1.6-0.8,2.3c-0.6,0.6-1.4,0.9-2.2,0.8c-0.8,0-1.5-0.2-2.1-0.7c-0.6-0.5-0.9-1.2-0.9-1.9h1.5
			c0,0.4,0.2,0.7,0.5,1c0.3,0.2,0.6,0.4,1,0.4c0.4,0,0.9-0.2,1.1-0.5c0.3-0.4,0.4-0.9,0.4-1.4c0-0.5-0.1-1-0.4-1.3
			c-0.3-0.3-0.8-0.5-1.2-0.5c-0.2,0-0.5,0-0.7,0.1c-0.2,0.1-0.5,0.2-0.6,0.4L914.5,549.9z"/>
		<path class="st1" d="M922.5,547.5c0.2,0,0.5,0.1,0.7,0.3c0.2,0.2,0.2,0.4,0.2,0.6c0,0.2-0.1,0.4-0.2,0.6c-0.4,0.3-1,0.3-1.3,0
			c-0.2-0.2-0.2-0.4-0.2-0.6C921.6,547.9,922,547.5,922.5,547.5C922.5,547.5,922.5,547.5,922.5,547.5z M922.5,552.9
			c0.2,0,0.5,0.1,0.7,0.3c0.2,0.2,0.2,0.4,0.2,0.6c0,0.2-0.1,0.4-0.2,0.6c-0.4,0.3-1,0.3-1.3,0c-0.2-0.2-0.2-0.4-0.2-0.6
			c0-0.2,0.1-0.5,0.2-0.6C922,553,922.3,552.9,922.5,552.9z"/>
		<path class="st1" d="M926.8,549.2h0.9c0.4,0,0.8-0.1,1.1-0.4c0.3-0.3,0.4-0.7,0.4-1c0-0.4-0.1-0.7-0.3-1c-0.3-0.3-0.7-0.4-1.1-0.4
			c-0.4,0-0.7,0.1-1,0.4c-0.3,0.2-0.4,0.6-0.4,0.9h-1.5c0-0.5,0.1-0.9,0.4-1.3c0.3-0.4,0.6-0.7,1.1-0.9c0.5-0.2,1-0.3,1.5-0.3
			c0.8,0,1.6,0.2,2.2,0.7c0.5,0.5,0.8,1.2,0.8,2c0,0.4-0.1,0.8-0.4,1.2c-0.3,0.4-0.6,0.6-1,0.8c0.5,0.1,0.9,0.4,1.2,0.8
			c0.3,0.4,0.4,0.9,0.4,1.3c0,0.8-0.3,1.5-0.9,2c-1.3,1-3.1,1-4.5,0c-0.6-0.5-0.9-1.2-0.9-1.9h1.5c0,0.4,0.1,0.7,0.4,1
			c0.3,0.3,0.7,0.4,1.1,0.4c0.4,0,0.8-0.1,1.1-0.4c0.3-0.3,0.4-0.7,0.4-1.1c0-0.4-0.1-0.8-0.4-1.1c-0.4-0.3-0.8-0.4-1.3-0.4h-0.9
			L926.8,549.2z"/>
		<path class="st1" d="M938.6,546.1l-3.7,8.4h-1.6l3.7-8h-4.8v-1.3h6.4V546.1z"/>
		<rect x="94.7" y="548" class="st2" width="802.9" height="3.5"/>
		<rect x="94.7" y="546.7" class="st1" width="244.1" height="6.1"/>
		<circle class="st1" cx="340.9" cy="549.8" r="11.3"/>
		<g id="wide_video_icon">
			<polygon class="st1" points="958.8,547.6 956.2,547.6 956.2,538.5 967.5,538.5 967.5,541.1 958.8,541.1 			"/>
			<polygon class="st1" points="967.5,561.2 956.2,561.2 956.2,552 958.8,552 958.8,558.6 967.5,558.6 			"/>
			<polygon class="st1" points="983.5,547.6 980.9,547.6 980.9,541.1 972.2,541.1 972.2,538.5 983.5,538.5 			"/>
			<polygon class="st1" points="983.5,561.2 972.2,561.2 972.2,558.6 980.9,558.6 980.9,552 983.5,552 			"/>
		</g>
	</g>
	<g id="play_button">
		<circle class="st2" cx="517.5" cy="302.5" r="69.5"/>
		<path class="st0" d="M499.3,324.9v-44.7c0-1.6,1.3-2.9,2.9-2.9c0.5,0,1,0.1,1.4,0.4l39.3,22.2c1.4,0.8,1.9,2.5,1.1,3.9
			c-0.3,0.4-0.6,0.8-1.1,1.1l-39.3,22.5c-1.4,0.8-3.1,0.3-3.9-1.1C499.4,325.8,499.3,325.3,499.3,324.9z"/>
	</g>
</g>
</svg>
